<?xml version="1.0" encoding="UTF-8"?>
<svg
   enable-background="new 0 0 122.88 61.92"
   version="1.1"
   viewBox="0 0 122.88 61.92"
   xml:space="preserve"
   xmlns="http://www.w3.org/2000/svg"
   xmlns:svg="http://www.w3.org/2000/svg"><defs
     id="defs1" /><style
     type="text/css"
     id="style1">.st0{fill-rule:evenodd;clip-rule:evenodd;}</style><g
     id="g1"
     style="fill:#2185d0;fill-opacity:1"
     transform="rotate(90,61.44,61.44)"><path
       class="st0"
       d="m 6.67,0 h 48.59 c 3.67,0 6.67,3 6.67,6.67 v 109.54 c 0,3.67 -3,6.67 -6.67,6.67 H 6.67 C 3,122.88 0,119.88 0,116.21 V 6.67 C 0,3 3,0 6.67,0 Z m 40.69,27.61 h 4.84 v 2.76 h -4.84 z m -16.4,67.66 c 4,0 7.25,3.25 7.25,7.25 0,4 -3.25,7.25 -7.25,7.25 -4,0 -7.25,-3.25 -7.25,-7.25 0.01,-4 3.25,-7.25 7.25,-7.25 z M 9.03,21.29 H 52.9 c 0.77,0 1.39,0.63 1.39,1.39 v 7.54 c 0,0.76 -0.63,1.39 -1.39,1.39 H 9.03 c -0.77,0 -1.39,-0.63 -1.39,-1.39 v -7.54 c 0,-0.76 0.62,-1.39 1.39,-1.39 z"
       id="path1"
       style="fill:#2185d0;fill-opacity:1" /></g></svg>
