<?xml version="1.0" encoding="UTF-8"?>
<svg enable-background="new 0 0 122.88 97.41" version="1.1" viewBox="0 0 122.88 97.41" xml:space="preserve" xmlns="http://www.w3.org/2000/svg"><style type="text/css">.st0{fill-rule:evenodd;clip-rule:evenodd;}</style><g fill="#2185d0"><path class="st0" d="m10.06 0h11.17v18.95h93.71c2.18 0 3.75 0.89 5.19 2.33s2.75 3.43 2.75 5.61v49.43c0 2.18-0.89 4.17-2.33 5.61-1.43 1.43-3.43 2.33-5.61 2.33h-2.83v6.14c0 0.74-0.31 1.42-0.8 1.92l-0.01 0.01c-0.5 0.49-1.18 0.8-1.92 0.8h-47.1c-0.75 0-1.43-0.31-1.93-0.8-0.05-0.05-0.1-0.11-0.14-0.16-0.41-0.48-0.66-1.1-0.66-1.77v-6.14h-6.65v6.14c0 0.75-0.31 1.43-0.8 1.93-0.05 0.05-0.11 0.1-0.16 0.14-0.48 0.41-1.1 0.66-1.77 0.66h-22.2c-0.75 0-1.43-0.31-1.93-0.8-0.05-0.05-0.1-0.11-0.14-0.16-0.41-0.48-0.66-1.1-0.66-1.77v-6.14h-4.01v13.15h-11.17v-21.94h-3.66c-0.33 0-0.6-0.27-0.6-0.6v-16.9c0-0.33 0.27-0.6 0.6-0.6h3.65v-15.34h-3.65c-0.33 0-0.6-0.27-0.6-0.6v-16.9c0-0.33 0.27-0.6 0.6-0.6h3.65v-15.03h-5.6c-2.44 0-4.45-2-4.45-4.45s2-4.45 4.45-4.45h5.61zm27.23 69.04h3.13v-3.8h-3.13v3.8zm54.66-38.84c5.91 0 11.26 2.4 15.13 6.27s6.27 9.22 6.27 15.13-2.4 11.26-6.27 15.13-9.22 6.27-15.13 6.27-11.26-2.4-15.13-6.27-6.27-9.22-6.27-15.13 2.4-11.26 6.27-15.13 9.22-6.27 15.13-6.27zm13.34 8.07c-3.41-3.41-8.13-5.52-13.34-5.52s-9.92 2.11-13.34 5.52c-3.41 3.41-5.52 8.13-5.52 13.34s2.11 9.92 5.52 13.34c3.41 3.41 8.13 5.52 13.34 5.52s9.92-2.11 13.34-5.52c3.41-3.41 5.52-8.13 5.52-13.34s-2.11-9.93-5.52-13.34zm-7.13 15.51c-0.3 0.73-0.73 1.39-1.31 1.98-0.61 0.63-1.38 1.17-2.31 1.63-0.01 0.25-0.02 0.48-0.04 0.71-0.03 0.4-0.08 0.81-0.15 1.23-0.27 1.68-0.84 2.92-1.41 4.15-0.37 0.8-0.74 1.6-1 2.48-0.09 0.32-0.12 0.6-0.11 0.86 0.03 0.44 0.21 0.79 0.5 1.07 0.32 0.32 0.78 0.55 1.28 0.7 0.56 0.16 1.18 0.23 1.78 0.19 0.52-0.03 1.07-0.14 1.6-0.28 0.55-0.15 1.08-0.34 1.59-0.55 0.47-0.19 0.91-0.41 1.33-0.66 0.43-0.25 0.85-0.52 1.25-0.82 1.35-0.99 2.3-2.07 2.86-3.15 0.52-0.99 0.71-2.01 0.61-3-0.1-1-0.5-1.98-1.19-2.92-0.88-1.2-2.22-2.29-3.98-3.21-0.29-0.15-0.6-0.26-0.91-0.32-0.13-0.06-0.26-0.08-0.39-0.09zm-4.04-7.7c0.74 0.27 1.42 0.67 2.03 1.23 0.66 0.59 1.23 1.33 1.73 2.24 0.23 0 0.47 0 0.71 0.01 0.43 0.02 0.84 0.05 1.24 0.09 1.68 0.19 2.95 0.71 4.21 1.23 0.81 0.33 1.61 0.66 2.53 0.88 0.01 0 0.02 0 0.03 0.01 0.31 0.07 0.58 0.09 0.83 0.06 0.44-0.05 0.78-0.25 1.05-0.55 0.3-0.34 0.51-0.8 0.64-1.32 0.14-0.57 0.17-1.19 0.11-1.78-0.06-0.53-0.18-1.06-0.35-1.59-0.18-0.54-0.39-1.07-0.62-1.57-0.21-0.45-0.46-0.89-0.72-1.3s-0.56-0.81-0.88-1.21c-1.05-1.31-2.16-2.2-3.28-2.72-1.02-0.47-2.04-0.62-3.03-0.48-0.99 0.15-1.96 0.59-2.86 1.31-1.16 0.93-2.19 2.32-3.03 4.12-0.14 0.3-0.23 0.61-0.28 0.93-0.03 0.14-0.05 0.27-0.06 0.41zm-7.7 3.48c0.26-0.74 0.67-1.42 1.22-2.04 0.58-0.65 1.33-1.23 2.24-1.73 0-0.24 0-0.47 0.01-0.71 0.01-0.42 0.04-0.84 0.09-1.24 0.19-1.69 0.7-2.95 1.22-4.21 0.33-0.82 0.67-1.64 0.88-2.53 0.08-0.32 0.1-0.61 0.07-0.86-0.05-0.43-0.25-0.78-0.55-1.05-0.34-0.3-0.8-0.51-1.32-0.64-0.57-0.14-1.19-0.17-1.78-0.1-0.53 0.06-1.07 0.18-1.59 0.35-0.53 0.17-1.06 0.39-1.56 0.63-0.45 0.21-0.88 0.46-1.3 0.73s-0.82 0.56-1.2 0.87c-1.31 1.06-2.2 2.17-2.71 3.29-0.47 1.02-0.62 2.04-0.47 3.02 0.15 0.99 0.59 1.96 1.32 2.86 0.93 1.15 2.33 2.19 4.13 3.02 0.3 0.14 0.61 0.23 0.93 0.28 0.11 0.04 0.24 0.05 0.37 0.06zm9.13-1.19c-0.85-0.84-2.02-1.37-3.31-1.37s-2.47 0.53-3.31 1.37c-0.85 0.85-1.37 2.02-1.37 3.31s0.53 2.47 1.37 3.31c0.85 0.85 2.02 1.37 3.31 1.37s2.47-0.53 3.31-1.37c0.85-0.85 1.37-2.02 1.37-3.31 0.01-1.28-0.52-2.46-1.37-3.31zm-5.72 8.74c-0.74-0.26-1.43-0.65-2.05-1.19-0.67-0.58-1.25-1.31-1.77-2.21h-0.71c-0.41-0.01-0.83-0.03-1.23-0.07-1.69-0.17-2.97-0.66-4.23-1.16-0.82-0.32-1.64-0.64-2.54-0.85-0.32-0.07-0.61-0.09-0.86-0.06-0.44 0.06-0.78 0.26-1.04 0.56-0.29 0.34-0.5 0.81-0.62 1.32-0.13 0.57-0.15 1.19-0.08 1.78 0.07 0.53 0.2 1.06 0.38 1.58 0.18 0.55 0.41 1.07 0.65 1.55 0.22 0.44 0.47 0.87 0.74 1.29 0.28 0.42 0.58 0.82 0.89 1.2 1.07 1.28 2.2 2.16 3.33 2.66 1.03 0.46 2.05 0.59 3.03 0.44 0.99-0.16 1.95-0.62 2.84-1.36 1.14-0.95 2.15-2.35 2.96-4.17 0.14-0.3 0.22-0.62 0.26-0.93 0.03-0.12 0.04-0.25 0.05-0.38zm-54.25-17.4h21.21c0.73 0 1.32 0.59 1.32 1.32v21.28c0 0.73-0.6 1.32-1.32 1.32h-21.21c-0.73 0-1.32-0.6-1.32-1.32v-21.28c0-0.73 0.59-1.32 1.32-1.32zm5.59 6.18h10.03c0.44 0 0.8 0.36 0.8 0.8v9.97c0 0.44-0.36 0.8-0.8 0.8h-10.03c-0.44 0-0.8-0.36-0.8-0.8v-9.97c0-0.44 0.36-0.8 0.8-0.8zm22.85 6.9v2.6h-3.8v-2.6h3.8zm0-4.97v2.6h-3.8v-2.6h3.8zm0 9.95v3.13h-3.8v-3.13h3.8zm0-15.45v3.13h-3.8v-3.13h3.8zm-34.87 10.47v2.6h3.8v-2.6h-3.8zm0-4.97v2.6h3.8v-2.6h-3.8zm0 9.95v3.13h3.8v-3.13h-3.8zm0-15.45v3.13h3.8v-3.13h-3.8zm18.62-8.15h2.6v3.8h-2.6v-3.8zm-4.97 0h2.6v3.8h-2.6v-3.8zm9.94 0h3.13v3.8h-3.13v-3.8zm-15.45 0h3.13v3.8h-3.13v-3.8zm10.48 34.87h2.6v-3.8h-2.6v3.8zm-4.97 0h2.6v-3.8h-2.6v3.8zm9.94 0h3.13v-3.8h-3.13v3.8zm-31.51-44.74v54.88h91.63c1.4 0 2.67-0.57 3.59-1.5s1.5-2.2 1.5-3.59v-44.7c0-1.4-0.57-2.67-1.5-3.59-0.91-0.92-2.19-1.5-3.58-1.5h-91.64zm87.41 59.96h-6.43c0.1 0.22 0.16 0.46 0.16 0.72v4.68h6.27v-5.4zm-9.59 0h-7.32c0.1 0.22 0.16 0.46 0.16 0.72v4.68h7.01v-4.68c0-0.25 0.05-0.5 0.15-0.72zm-10.48 0h-7.33c0.1 0.22 0.16 0.46 0.16 0.72v4.68h7.01v-4.68c0-0.25 0.06-0.5 0.16-0.72zm-10.48 0h-7.32c0.1 0.22 0.16 0.46 0.16 0.72v4.68h7.01v-4.68c-0.01-0.25 0.05-0.5 0.15-0.72zm-10.48 0h-4.59v5.4h4.43v-4.68c0-0.25 0.06-0.5 0.16-0.72zm-18.18 0h-4.38c0.1 0.22 0.16 0.46 0.16 0.72v4.68h4.22v-5.4zm-7.53 0h-6.28c0.1 0.22 0.16 0.46 0.16 0.72v4.68h5.97v-4.68c-0.01-0.25 0.05-0.5 0.15-0.72zm-9.44 0h-3.76v5.4h3.6v-4.68c0-0.25 0.06-0.5 0.16-0.72z" fill="#2185d0"/></g></svg>
