<?xml version="1.0" encoding="UTF-8"?>
<svg enable-background="new 0 0 122.88 117.61" version="1.1" viewBox="0 0 122.88 117.61" xml:space="preserve" xmlns="http://www.w3.org/2000/svg"><style type="text/css"><![CDATA[
	.st0{fill-rule:evenodd;clip-rule:evenodd;}
]]></style><path class="st0" d="m71.39 103.48h3.64v-6.8h-3.64v6.8zm-65.36-103.48h110.81c1.65 0 3.16 0.68 4.25 1.77 1.1 1.1 1.78 2.61 1.78 4.26v105.54c0 1.66-0.68 3.17-1.77 4.27-1.09 1.09-2.6 1.77-4.26 1.77h-110.81c-1.66 0-3.17-0.68-4.26-1.77s-1.77-2.61-1.77-4.27v-105.54c0-1.65 0.68-3.16 1.78-4.26 1.1-1.09 2.6-1.77 4.25-1.77zm109.32 7.53h-107.82v46.73h10.68v-4.04c-0.1-0.04-0.19-0.1-0.27-0.15-0.16-0.1-0.31-0.22-0.44-0.34l-0.01-0.02c-0.23-0.22-0.41-0.5-0.54-0.8-0.12-0.3-0.19-0.63-0.19-0.97 0-0.35 0.07-0.67 0.19-0.97 0.13-0.31 0.32-0.59 0.55-0.84 0.23-0.23 0.51-0.42 0.82-0.55 0.31-0.12 0.63-0.19 0.97-0.19 0.35 0 0.67 0.07 0.97 0.19 0.31 0.13 0.59 0.32 0.83 0.55 0.23 0.24 0.42 0.51 0.55 0.82l0.01 0.02c0.12 0.29 0.19 0.62 0.19 0.95 0 0.34-0.07 0.67-0.19 0.97-0.13 0.31-0.32 0.59-0.55 0.82l-0.02 0.02c-0.12 0.11-0.24 0.22-0.38 0.31-0.08 0.05-0.15 0.1-0.23 0.13v5.21c0 0.31-0.13 0.6-0.33 0.8-0.21 0.2-0.49 0.33-0.8 0.33h-11.81v3.4h16.61c0.04-0.09 0.09-0.17 0.14-0.25l0.01-0.01c0.1-0.15 0.21-0.28 0.33-0.4 0.24-0.23 0.51-0.42 0.83-0.55l0.02-0.01c0.3-0.12 0.62-0.19 0.95-0.19 0.34 0 0.67 0.07 0.97 0.19 0.31 0.13 0.6 0.32 0.82 0.55 0.23 0.23 0.42 0.51 0.55 0.82 0.12 0.31 0.19 0.63 0.19 0.97 0 0.35-0.07 0.67-0.19 0.97-0.13 0.31-0.32 0.59-0.55 0.82-0.24 0.23-0.51 0.42-0.82 0.55l-0.02 0.01c-0.3 0.12-0.62 0.19-0.95 0.19-0.35 0-0.67-0.07-0.97-0.19-0.31-0.13-0.59-0.32-0.83-0.55-0.12-0.12-0.24-0.26-0.33-0.42-0.05-0.08-0.1-0.17-0.14-0.25h-16.62v3.92h18.76c0.31 0 0.59 0.13 0.8 0.33s0.33 0.48 0.33 0.8v8.39c0.1 0.04 0.21 0.1 0.31 0.16 0.17 0.11 0.34 0.23 0.48 0.38 0.23 0.24 0.42 0.51 0.55 0.82l0.01 0.02c0.12 0.3 0.18 0.62 0.18 0.95 0 0.34-0.07 0.67-0.19 0.97-0.13 0.31-0.32 0.59-0.55 0.84-0.23 0.23-0.51 0.42-0.82 0.55-0.31 0.12-0.63 0.19-0.97 0.19s-0.67-0.07-0.97-0.19c-0.31-0.13-0.59-0.32-0.82-0.55s-0.42-0.51-0.55-0.82c-0.12-0.3-0.19-0.63-0.19-0.97 0-0.35 0.07-0.67 0.19-0.97 0.13-0.31 0.32-0.6 0.55-0.83 0.11-0.11 0.22-0.2 0.35-0.29 0.06-0.04 0.13-0.08 0.19-0.12v-7.38h-17.64v3.2h9.89c0.31 0 0.59 0.13 0.79 0.33 0.21 0.21 0.33 0.49 0.33 0.8v4.49c0.08 0.04 0.16 0.08 0.24 0.13 0.15 0.1 0.29 0.21 0.41 0.33l0.02 0.02c0.22 0.23 0.4 0.51 0.53 0.81 0.12 0.3 0.19 0.63 0.19 0.97 0 0.35-0.07 0.67-0.19 0.97l-0.01 0.02c-0.13 0.31-0.31 0.58-0.54 0.81l-0.02 0.01c-0.23 0.23-0.51 0.41-0.81 0.54-0.29 0.14-0.62 0.21-0.96 0.21s-0.67-0.07-0.97-0.19c-0.31-0.13-0.6-0.32-0.82-0.55l-0.02-0.02c-0.22-0.23-0.4-0.51-0.53-0.81-0.12-0.31-0.19-0.63-0.19-0.97s0.07-0.66 0.19-0.96c0.13-0.31 0.32-0.6 0.55-0.82 0.13-0.14 0.27-0.25 0.43-0.35 0.08-0.06 0.17-0.1 0.26-0.15v-3.34h-8.77v36.24h16.88v-10.75h-4.03c-0.05 0.09-0.1 0.19-0.15 0.27-0.1 0.16-0.22 0.31-0.34 0.43l-0.02 0.01c-0.22 0.23-0.5 0.41-0.8 0.54-0.3 0.12-0.63 0.19-0.97 0.19-0.35 0-0.67-0.07-0.97-0.19-0.31-0.13-0.59-0.32-0.84-0.55-0.23-0.23-0.42-0.51-0.55-0.82-0.12-0.31-0.19-0.63-0.19-0.97 0-0.35 0.07-0.67 0.19-0.97 0.13-0.31 0.32-0.59 0.55-0.82 0.24-0.23 0.51-0.42 0.82-0.55l0.02-0.01c0.29-0.12 0.62-0.19 0.95-0.19 0.34 0 0.67 0.07 0.97 0.19 0.31 0.13 0.59 0.32 0.82 0.55l0.02 0.02c0.12 0.12 0.22 0.24 0.31 0.38 0.05 0.08 0.1 0.15 0.13 0.23h5.21c0.31 0 0.6 0.13 0.8 0.33 0.2 0.21 0.33 0.49 0.33 0.8v11.88h3.4v-16.69c-0.09-0.04-0.17-0.09-0.25-0.14h-0.01c-0.15-0.1-0.28-0.21-0.4-0.33-0.23-0.24-0.42-0.51-0.55-0.82l-0.01-0.02c-0.12-0.3-0.19-0.62-0.19-0.96s0.07-0.67 0.19-0.97c0.13-0.31 0.32-0.6 0.55-0.82 0.23-0.23 0.51-0.42 0.82-0.55 0.31-0.12 0.63-0.19 0.97-0.19 0.35 0 0.67 0.07 0.97 0.19 0.31 0.13 0.59 0.32 0.82 0.55 0.23 0.24 0.42 0.51 0.55 0.82l0.01 0.02c0.12 0.3 0.18 0.62 0.18 0.95 0 0.35-0.07 0.67-0.19 0.97-0.13 0.31-0.32 0.59-0.55 0.82-0.12 0.12-0.26 0.24-0.42 0.33-0.08 0.05-0.17 0.1-0.25 0.14v16.68h3.92v-18.82c0-0.31 0.13-0.59 0.33-0.8s0.48-0.33 0.8-0.33h8.39c0.05-0.1 0.1-0.21 0.16-0.31 0.11-0.17 0.24-0.34 0.38-0.48 0.24-0.23 0.51-0.42 0.82-0.55l0.02-0.01c0.3-0.12 0.62-0.18 0.95-0.18 0.34 0 0.67 0.07 0.97 0.19 0.31 0.13 0.59 0.32 0.84 0.55 0.23 0.23 0.42 0.51 0.55 0.82 0.12 0.31 0.19 0.63 0.19 0.97 0 0.35-0.07 0.67-0.19 0.97-0.13 0.31-0.32 0.59-0.55 0.82s-0.51 0.42-0.82 0.55c-0.3 0.12-0.63 0.19-0.97 0.19-0.35 0-0.67-0.07-0.97-0.19-0.31-0.13-0.59-0.32-0.83-0.55-0.11-0.11-0.2-0.22-0.29-0.35-0.04-0.06-0.08-0.13-0.12-0.19h-7.38v17.7h3.2v-9.96c0-0.31 0.13-0.59 0.33-0.79 0.21-0.21 0.49-0.33 0.8-0.33h4.49c0.04-0.08 0.08-0.16 0.14-0.24 0.1-0.15 0.21-0.29 0.33-0.41l0.02-0.02c0.23-0.22 0.5-0.4 0.81-0.53 0.3-0.12 0.63-0.19 0.97-0.19s0.67 0.07 0.97 0.19l0.02 0.01c0.31 0.13 0.58 0.31 0.81 0.54l0.01 0.02c0.23 0.23 0.41 0.5 0.54 0.8 0.12 0.3 0.19 0.63 0.19 0.97s-0.07 0.67-0.19 0.97c-0.13 0.31-0.32 0.6-0.55 0.82l-0.02 0.02c-0.23 0.22-0.51 0.4-0.81 0.53-0.31 0.12-0.63 0.19-0.97 0.19s-0.67-0.07-0.97-0.19c-0.31-0.13-0.6-0.32-0.82-0.55-0.13-0.13-0.25-0.27-0.35-0.43-0.06-0.08-0.1-0.17-0.15-0.26h-3.34v8.82h71.37v-102.51h0.01zm-82.52 32.08h1.43v-3.75h-1.43v3.75zm-16.08 0h1.43v-3.75h-1.43v3.75zm-0.24-21.17h7.53c0.33 0 0.61 0.27 0.61 0.61v14.95c0 0.33-0.28 0.6-0.61 0.6h-7.53c-0.33 0-0.61-0.27-0.61-0.6v-14.96c0-0.34 0.28-0.6 0.61-0.6zm6.09-5.07h1.18v3.75h-1.18v-3.75zm-2.8 0h1.18v3.75h-1.18v-3.75zm-3.05 0h1.43v3.75h-1.43v-3.75zm5.85 26.24h1.18v-3.75h-1.18v3.75zm-2.8 0h1.18v-3.75h-1.18v3.75zm12.79-21.17h7.53c0.34 0 0.6 0.27 0.6 0.61v14.95c0 0.33-0.27 0.6-0.6 0.6h-7.53c-0.33 0-0.6-0.27-0.6-0.6v-14.96c-0.01-0.34 0.27-0.6 0.6-0.6zm6.09-5.07h1.19v3.75h-1.19v-3.75zm-2.8 0h1.18v3.75h-1.18v-3.75zm-3.05 0h1.43v3.75h-1.43v-3.75zm5.85 26.24h1.19v-3.75h-1.19v3.75zm-2.8 0h1.18v-3.75h-1.18v3.75zm15.48-22.15c0-0.54 0.6-0.99 1.35-0.99s1.35 0.44 1.35 0.99v32.83c0 0.54-0.6 0.99-1.35 0.99s-1.35-0.44-1.35-0.99v-32.83zm8.83-0.13v1.5h5.09v-1.5h-5.09zm0 22.85v1.51h5.09v-1.51h-5.09zm42.21-1.39v4.54c0 0.35-0.29 0.64-0.64 0.64h-35.07c-0.36 0-0.64-0.29-0.64-0.64v-4.54c0-0.35 0.28-0.64 0.64-0.64h35.07c0.35 0 0.64 0.29 0.64 0.64zm4.78 1.39v1.51h-3.95v-1.51h3.95zm-46.99-11.43v1.51h5.09v-1.51h-5.09zm42.21-1.38v4.53c0 0.36-0.29 0.64-0.64 0.64h-35.07c-0.36 0-0.64-0.28-0.64-0.64v-4.53c0-0.36 0.28-0.64 0.64-0.64h35.07c0.35 0 0.64 0.28 0.64 0.64zm4.78 1.38v1.51h-3.95v-1.51h3.95zm-4.78-12.81v4.54c0 0.35-0.29 0.64-0.64 0.64h-35.07c-0.36 0-0.64-0.29-0.64-0.64v-4.54c0-0.35 0.28-0.64 0.64-0.64h35.07c0.35 0 0.64 0.28 0.64 0.64zm4.78 1.39v1.5h-3.95v-1.5h3.95zm-37.78 49.63h24.7c0.84 0 1.54 0.69 1.54 1.54v24.78c0 0.85-0.69 1.54-1.54 1.54h-24.7c-0.85 0-1.54-0.69-1.54-1.54v-24.79c0-0.84 0.69-1.53 1.54-1.53zm6.5 7.19h11.69c0.51 0 0.93 0.42 0.93 0.93v11.6c0 0.51-0.42 0.93-0.93 0.93h-11.69c-0.51 0-0.93-0.42-0.93-0.93v-11.6c0-0.51 0.42-0.93 0.93-0.93zm28.98 8.04v3.03h-6.8v-3.03h6.8zm0-5.79v3.03h-6.8v-3.03h6.8zm0 11.58v3.64h-6.8v-3.64h6.8zm0-17.99v3.64h-6.8v-3.64h6.8zm-45.34 12.2v3.03h6.8v-3.03h-6.8zm0-5.79v3.03h6.8v-3.03h-6.8zm0 11.58v3.64h6.8v-3.64h-6.8zm0-17.99v3.64h6.8v-3.64h-6.8zm24.05-11.85h3.03v6.8h-3.03v-6.8zm-5.79 0h3.03v6.8h-3.03v-6.8zm11.58 0h3.64v6.8h-3.64v-6.8zm-17.99 0h3.64v6.8h-3.64v-6.8zm12.2 45.34h3.03v-6.8h-3.03v6.8zm-5.79 0h3.03v-6.8h-3.03v6.8zm11.58 0h3.64v-6.8h-3.64v6.8z" fill="#2185d0"/></svg>
