<?xml version="1.0" encoding="UTF-8"?>
<svg enable-background="new 0 0 122.88 122.15" version="1.1" viewBox="0 0 122.88 122.15" xml:space="preserve" xmlns="http://www.w3.org/2000/svg"><style type="text/css">.st0{fill-rule:evenodd;clip-rule:evenodd;}</style><g fill="#2185d0"><path class="st0" d="m18.23 17.84h13.12v19.82c0 2.05 1.66 3.71 3.71 3.71s3.71-1.66 3.71-3.71v-19.82h10.17v19.82c0 2.05 1.66 3.71 3.71 3.71s3.71-1.66 3.71-3.71v-19.82h10.17v19.82c0 2.05 1.66 3.71 3.71 3.71s3.71-1.66 3.71-3.71v-19.82h10.17v19.82c0 2.05 1.66 3.71 3.71 3.71s3.71-1.66 3.71-3.71v-19.82h13.12c0.63 0 1.15 0.52 1.15 1.15v57.48c0 0.63-0.52 1.15-1.15 1.15h-26.2v13.28c0 0.33-0.27 0.61-0.61 0.61h-31.75c-0.33 0-0.61-0.27-0.61-0.61v-13.29h-27.26c-0.63 0-1.15-0.52-1.15-1.15v-57.48c0.01-0.63 0.52-1.14 1.15-1.14zm-4.75-17.84h95.92c3.71 0 7.08 1.52 9.52 3.96s3.96 5.81 3.96 9.52v95.19c0 3.71-1.52 7.08-3.96 9.52s-5.81 3.96-9.52 3.96h-95.92c-3.71 0-7.08-1.52-9.52-3.96s-3.96-5.81-3.96-9.52v-95.19c0-3.71 1.52-7.08 3.96-9.52s5.81-3.96 9.52-3.96zm95.92 6.54h-95.92c-1.9 0-3.64 0.78-4.9 2.04s-2.04 2.99-2.04 4.9v95.19c0 1.9 0.78 3.64 2.04 4.9s2.99 2.04 4.9 2.04h95.92c1.9 0 3.64-0.78 4.9-2.04s2.04-2.99 2.04-4.9v-95.19c0-1.9-0.78-3.64-2.04-4.9s-2.99-2.04-4.9-2.04z" fill="#2185d0"/></g></svg>
