<?xml version="1.0" encoding="UTF-8"?>
<svg enable-background="new 0 0 122.88 92.44" version="1.1" viewBox="0 0 122.88 92.44" xml:space="preserve" xmlns="http://www.w3.org/2000/svg"><style type="text/css"><![CDATA[
	.st0{fill:#FFFFFF;}
]]></style><path d="m23.3 0h76.28c6.41 0 12.23 2.63 16.45 6.84 4.22 4.22 6.85 10.05 6.85 16.46v45.84c0 6.38-2.63 12.21-6.85 16.44l-0.01 0.01c-4.24 4.23-10.06 6.85-16.44 6.85h-76.28c-6.4 0-12.23-2.62-16.46-6.85-4.22-4.22-6.84-10.04-6.84-16.45v-45.84c0-6.41 2.62-12.24 6.84-16.46s10.05-6.84 16.46-6.84z" fill="#2185d0"/><path class="st0" d="m22.24 46.25c0-6.86 1.75-12.2 5.26-16.02 3.51-3.83 8.4-5.73 14.66-5.73 6.42 0 11.37 1.88 14.84 5.63 3.47 3.76 5.21 9.02 5.21 15.78 0 4.91-0.75 8.93-2.27 12.07s-3.72 5.59-6.58 7.34c-2.87 1.75-6.45 2.62-10.73 2.62-4.35 0-7.95-0.75-10.8-2.26-2.85-1.52-5.16-3.9-6.93-7.17-1.77-3.26-2.66-7.35-2.66-12.26zm11.91 0.03c0 4.24 0.73 7.29 2.17 9.14 1.45 1.85 3.43 2.78 5.93 2.78 2.56 0 4.55-0.91 5.95-2.72 1.41-1.82 2.11-5.07 2.11-9.78 0-3.95-0.74-6.84-2.2-8.66-1.47-1.83-3.46-2.74-5.97-2.74-2.41 0-4.35 0.93-5.8 2.78-1.47 1.85-2.19 4.92-2.19 9.2zm31.53 7.05 11.31-0.77c0.24 2 0.74 3.52 1.5 4.56 1.23 1.69 2.98 2.54 5.26 2.54 1.7 0 3.01-0.43 3.92-1.3 0.92-0.87 1.38-1.88 1.38-3.02 0-1.08-0.43-2.06-1.3-2.92s-2.9-1.66-6.09-2.44c-5.22-1.27-8.94-2.98-11.17-5.1-2.25-2.11-3.37-4.82-3.37-8.1 0-2.15 0.57-4.19 1.72-6.11 1.15-1.93 2.87-3.43 5.18-4.53s5.47-1.64 9.48-1.64c4.93 0 8.68 1 11.27 3s4.12 5.18 4.62 9.54l-11.19 0.72c-0.3-1.91-0.93-3.3-1.88-4.16-0.96-0.87-2.28-1.3-3.96-1.3-1.38 0-2.43 0.32-3.13 0.96s-1.05 1.42-1.05 2.34c0 0.67 0.29 1.26 0.85 1.8 0.55 0.56 1.88 1.07 3.98 1.55 5.21 1.22 8.93 2.46 11.18 3.72 2.25 1.25 3.9 2.8 4.92 4.66 1.02 1.85 1.53 3.92 1.53 6.22 0 2.69-0.68 5.18-2.05 7.46-1.37 2.27-3.28 4-5.74 5.17-2.45 1.18-5.54 1.76-9.27 1.76-6.55 0-11.1-1.38-13.62-4.13s-3.95-6.24-4.28-10.48z"/></svg>
