<?xml version="1.0" encoding="UTF-8"?>
<svg enable-background="new 0 0 122.88 80.89" version="1.1" viewBox="0 0 122.88 80.89" xml:space="preserve" xmlns="http://www.w3.org/2000/svg"><style type="text/css"><![CDATA[
	.st0{fill-rule:evenodd;clip-rule:evenodd;}
]]></style><g fill="#2185d0"><path class="st0" d="m96.68 61.75-5.22-0.49 4.33-9.47h5.91l-3.35 5.43 6.03 0.67-11.07 13.29 3.37-9.43zm-91.58-61.75h112.67c1.4 0 2.67 0.58 3.6 1.5 0.92 0.92 1.5 2.2 1.5 3.61v70.68c0 1.41-0.57 2.68-1.5 3.61-0.92 0.92-2.2 1.5-3.61 1.5h-112.66c-1.41 0-2.68-0.57-3.61-1.5-0.05-0.05-0.1-0.1-0.14-0.16-0.84-0.92-1.35-2.13-1.35-3.45v-70.68c0-1.4 0.57-2.67 1.5-3.6l0.01-0.01c0.93-0.93 2.2-1.5 3.59-1.5zm112.67 4.29h-112.67c-0.23 0-0.43 0.09-0.58 0.23v0.01c-0.14 0.14-0.23 0.35-0.23 0.58v70.68c0 0.2 0.07 0.38 0.18 0.52l0.06 0.06c0.15 0.15 0.35 0.24 0.58 0.24h112.67c0.22 0 0.43-0.09 0.58-0.24s0.24-0.35 0.24-0.58v-70.68c0-0.22-0.09-0.43-0.24-0.58s-0.36-0.24-0.59-0.24zm-32.43 7.52h23.9c1.51 0 2.75 1.24 2.75 2.75v23.52c0 1.52-1.24 2.75-2.75 2.75h-23.9c-1.51 0-2.75-1.24-2.75-2.75v-23.52c-0.01-1.51 1.23-2.75 2.75-2.75zm-41.86 18.21c1.24 0.26 2.4 0.74 3.43 1.41l5.31-5.31c-2.46-1.94-5.46-3.22-8.74-3.61v7.51zm6.32 4.28c0.68 1.03 1.18 2.19 1.45 3.44h7.51c-0.4-3.28-1.7-6.28-3.66-8.74l-5.3 5.3zm1.48 7.53c-0.25 1.27-0.74 2.45-1.42 3.49l5.31 5.31c1.95-2.48 3.24-5.5 3.61-8.8h-7.5zm-4.3 6.39c-1.05 0.7-2.23 1.2-3.51 1.46v7.51c3.31-0.39 6.33-1.7 8.81-3.67l-5.3-5.3zm-7.59 1.46c-1.27-0.26-2.46-0.77-3.51-1.46l-5.3 5.3c2.48 1.97 5.5 3.28 8.81 3.67v-7.51zm-6.38-4.36c-0.68-1.05-1.17-2.23-1.42-3.49h-7.5c0.37 3.3 1.66 6.32 3.61 8.8l5.31-5.31zm-1.39-7.58c0.27-1.25 0.77-2.41 1.45-3.44l-5.31-5.3c-1.96 2.46-3.26 5.46-3.66 8.74h7.52zm4.35-6.31c1.03-0.67 2.19-1.15 3.43-1.41v-7.51c-3.28 0.38-6.27 1.67-8.74 3.61l5.31 5.31zm7.51-13.02c4.4 0.41 8.41 2.15 11.64 4.81l4.67-4.67c-4.44-3.83-10.1-6.29-16.31-6.74v6.6zm14.53 7.69c2.68 3.22 4.43 7.24 4.86 11.65h6.6c-0.46-6.22-2.95-11.88-6.8-16.31l-4.66 4.66zm4.87 15.73c-0.4 4.42-2.14 8.46-4.81 11.71l4.67 4.67c3.84-4.46 6.31-10.14 6.74-16.38h-6.6zm-7.69 14.6c-3.24 2.69-7.28 4.45-11.71 4.87v6.6c6.25-0.45 11.93-2.94 16.38-6.8l-4.67-4.67zm-15.8 4.86c-4.43-0.42-8.47-2.18-11.71-4.87l-4.67 4.67c4.45 3.87 10.13 6.35 16.38 6.8v-6.6zm-14.59-7.76c-2.67-3.24-4.41-7.28-4.81-11.71h-6.6c0.43 6.24 2.9 11.92 6.74 16.38l4.67-4.67zm-4.8-15.79c0.43-4.41 2.18-8.42 4.86-11.65l-4.67-4.67c-3.85 4.44-6.34 10.09-6.8 16.31h6.61v0.01zm7.75-14.52c3.23-2.66 7.24-4.39 11.64-4.81v-6.6c-6.21 0.45-11.87 2.91-16.31 6.74l4.67 4.67zm13.69-15.57c8.89 0 16.94 3.6 22.77 9.43s9.43 13.88 9.43 22.77-3.6 16.94-9.43 22.77-13.88 9.43-22.77 9.43-16.94-3.6-22.77-9.43-9.43-13.88-9.43-22.77 3.6-16.94 9.43-22.77c5.83-5.82 13.87-9.43 22.77-9.43zm51.3 13.22h1.63c0.23 0 0.44 0.1 0.59 0.25s0.25 0.36 0.25 0.59v3.58c0 0.23-0.1 0.44-0.25 0.59s-0.36 0.25-0.59 0.25h-1.63c-0.23 0-0.44-0.1-0.59-0.25s-0.25-0.36-0.25-0.59v-3.58c0-0.23 0.09-0.44 0.25-0.59 0.15-0.16 0.36-0.25 0.59-0.25zm6.15 11.85h-3.22c-0.2 0-0.39-0.08-0.52-0.22s-0.21-0.32-0.21-0.52v-2.04c0-0.51 0.21-0.98 0.55-1.32s0.81-0.55 1.32-0.55h0.93c0.52 0 0.99 0.21 1.33 0.55s0.55 0.81 0.55 1.33v2.03c0 0.2-0.08 0.39-0.21 0.52-0.13 0.14-0.31 0.22-0.52 0.22zm1.3-11.85h1.63c0.23 0 0.44 0.1 0.59 0.25s0.25 0.36 0.25 0.59v3.58c0 0.23-0.1 0.44-0.25 0.59s-0.36 0.25-0.59 0.25h-1.63c-0.23 0-0.44-0.1-0.59-0.25s-0.25-0.36-0.25-0.59v-3.58c0-0.23 0.09-0.44 0.25-0.59 0.15-0.16 0.36-0.25 0.59-0.25zm8.45-6.78c0.66 0 1.2 0.54 1.2 1.2s-0.54 1.2-1.2 1.2-1.2-0.54-1.2-1.2 0.54-1.2 1.2-1.2zm-22.56 21.92c0.66 0 1.2 0.54 1.2 1.2s-0.54 1.2-1.2 1.2-1.2-0.54-1.2-1.2c0.01-0.66 0.54-1.2 1.2-1.2zm11.11-19.51c5.42 0 9.82 4.4 9.82 9.82s-4.4 9.82-9.82 9.82-9.82-4.4-9.82-9.82 4.4-9.82 9.82-9.82z" fill="#2185d0"/></g></svg>
