<?xml version="1.0" encoding="UTF-8"?>
<svg enable-background="new 0 0 119.09 123.12" version="1.1" viewBox="0 0 119.09 123.12" xml:space="preserve" xmlns="http://www.w3.org/2000/svg"><style type="text/css">.st0{fill-rule:evenodd;clip-rule:evenodd;}</style><g fill="#2185d0"><path class="st0" d="m86.56 48.74c17.97 0 32.53 14.57 32.53 32.53 0 17.97-14.57 32.53-32.53 32.53-17.97 0-32.53-14.56-32.53-32.53 0-17.96 14.56-32.53 32.53-32.53zm-76.5 14.76 0.16-12.93c0-0.26 0.22-0.47 0.48-0.47 0.07 0 0.13 0.02 0.19 0.04l8.2 3.45c0.18 0.08 0.29 0.25 0.29 0.44v13.76c0 0.26-0.21 0.48-0.48 0.48-0.09 0-0.18-0.03-0.26-0.07l-8.33-4.26c-0.16-0.1-0.25-0.27-0.25-0.44zm5.12-45.45-10.52-3.9 3.98 10.55 10.49 5.68-3.95-12.33zm-4.37 89c-0.3-0.17-0.5-0.45-0.59-0.75-0.08-0.29-0.06-0.62 0.09-0.91l0.05-0.08c0.17-0.28 0.44-0.47 0.73-0.55s0.62-0.06 0.9 0.09l7.52 4.29c0.3 0.17 0.5 0.45 0.59 0.75 0.08 0.29 0.06 0.62-0.09 0.91l-0.05 0.09c-0.17 0.28-0.44 0.47-0.73 0.55s-0.62 0.06-0.91-0.09l-7.51-4.3zm0.13-5.75c-0.3-0.17-0.5-0.45-0.59-0.76-0.08-0.31-0.05-0.65 0.12-0.95s0.45-0.5 0.76-0.59c0.31-0.08 0.65-0.05 0.95 0.12l7.34 4.2c0.3 0.17 0.5 0.45 0.59 0.76l0.01 0.04c0.07 0.3 0.03 0.62-0.13 0.91-0.17 0.3-0.45 0.5-0.76 0.59-0.31 0.08-0.65 0.05-0.95-0.12l-7.34-4.2zm36.29-36.22-12.12 1.73 0.25 37.81 13.84-3.12c0.21-0.05 0.43 0.06 0.52 0.24 0.22 0.36 0.45 0.72 0.68 1.08 0.25 0.37 0.49 0.73 0.74 1.08 0.15 0.22 0.1 0.51-0.12 0.66-0.06 0.04-0.12 0.07-0.19 0.08l-16.81 3.79-0.18 0.03-0.19 0.01h-0.05c-0.45-0.01-0.86-0.2-1.17-0.5-0.31-0.31-0.5-0.74-0.51-1.21l-0.27-41.33c-0.03-0.44 0.11-0.87 0.38-1.2l0.01-0.01c0.26-0.32 0.64-0.54 1.08-0.61l15.32-2.18c0.26-0.04 0.5 0.14 0.54 0.4 0.02 0.11-0.01 0.23-0.07 0.32-0.23 0.42-0.47 0.86-0.69 1.3-0.23 0.45-0.45 0.9-0.65 1.35-0.05 0.16-0.19 0.26-0.34 0.28zm-23.35-26.55 0.49 80.73 33.65-7.59c0.15-0.03 0.31 0.01 0.42 0.11 0.39 0.32 0.81 0.65 1.24 0.98 0.44 0.33 0.88 0.65 1.31 0.95 0.22 0.15 0.27 0.45 0.12 0.66-0.07 0.1-0.17 0.17-0.29 0.19l-37.77 8.52c-0.26 0.06-0.53 0.05-0.77-0.01-0.25-0.06-0.48-0.17-0.68-0.33l-15.27-11.72c-0.23-0.17-0.4-0.4-0.52-0.64-0.12-0.25-0.17-0.53-0.16-0.81l-0.1-83.35-5.4-14.31c-0.19-0.44-0.19-0.89-0.04-1.27l0.02-0.04c0.08-0.2 0.2-0.39 0.34-0.54 0.15-0.17 0.34-0.31 0.55-0.4 0.38-0.17 0.84-0.21 1.3-0.04l1.33 0.49c-0.14-0.67-0.2-1.35-0.09-1.99 0.18-0.99 0.77-1.82 2.15-2.23 0.07-0.02 0.14-0.04 0.21-0.05 19.38-2.58 40.31-3.92 59.91-5.82 0.68-0.06 1.31 0.14 1.81 0.52 0.51 0.39 0.87 0.97 1 1.64l1.53 11 6.61-12.28c0.2-0.37 0.52-0.64 0.89-0.79 0.37-0.14 0.79-0.16 1.18-0.03l20.41 5.58c0.46 0.12 0.82 0.42 1.04 0.8s0.29 0.84 0.16 1.3c-1.58 5.08-5.01 12.11-7.14 17.26l11.2 9.39c0.36 0.3 0.57 0.73 0.61 1.17s-0.09 0.89-0.39 1.25l-0.03 0.03c-0.15 0.17-0.32 0.3-0.5 0.39-0.21 0.11-0.43 0.17-0.66 0.19l-10.56 1.39 0.04 3.57c0 0.26-0.21 0.48-0.47 0.48-0.04 0-0.08 0-0.11-0.01-0.4-0.09-0.81-0.18-1.23-0.27l-0.04-0.01c-0.38-0.08-0.77-0.15-1.19-0.22-0.24-0.04-0.41-0.25-0.4-0.49l-0.03-2.61-57.19 7.51c-0.29 0.06-0.6 0.04-0.88-0.06-0.28-0.09-0.53-0.25-0.74-0.49l-6.87-7.7zm-14.9-9.75 0.1 80.03 11.85 9.1-0.57-82.97-11.38-6.16zm8.07-13.7 0.15 0.06c0.22 0.09 0.43 0.23 0.6 0.4 0.17 0.18 0.31 0.4 0.39 0.65l1.11 3.4 0.98 3.02 46.88-6.11-1.8-12.99-58.44 5.68c0.1 0.48 0.39 1.47 0.55 2.03l0.04 0.13 9.54 3.73zm15.67 28.2 66.6-8.75-8.6-7.21-65.18 7.89 7.18 8.07zm34.68-19.77v-3.59l-46.03 6 1.91 6.1 44.12-5.64v-2.87zm3.44 2.47 12.51-1.33-12.51-4.27v5.6zm1.14-8.94 18.3 6.34 6.19-14.93-17.31-4.72-7.18 13.31zm14.58 59.73c2.49 0 4.5 2.02 4.5 4.5 0 2.49-2.02 4.5-4.5 4.5-2.49 0-4.5-2.02-4.5-4.5-0.01-2.48 2.01-4.5 4.5-4.5zm0-4.84c5.16 0 9.34 4.18 9.34 9.34s-4.18 9.34-9.34 9.34-9.34-4.18-9.34-9.34c0-5.15 4.18-9.34 9.34-9.34zm0-2.07c6.3 0 11.41 5.11 11.41 11.41s-5.11 11.41-11.41 11.41-11.41-5.11-11.41-11.41c-0.01-6.3 5.1-11.41 11.41-11.41z" fill="#2185d0"/></g></svg>
